<?xml version="1.0" encoding="UTF-8" standalone="no"?>
<!DOCTYPE svg PUBLIC "-//W3C//DTD SVG 1.1//EN"
 "http://www.w3.org/Graphics/SVG/1.1/DTD/svg11.dtd">
<!-- Generated by graphviz version 2.40.1 (20161225.0304)
 -->
<!-- Title: dependencies Pages: 1 -->
<svg width="1133pt" height="284pt"
 viewBox="0.00 0.00 1133.00 284.00" xmlns="http://www.w3.org/2000/svg" xmlns:xlink="http://www.w3.org/1999/xlink">
<g id="graph0" class="graph" transform="scale(1 1) rotate(0) translate(4 280)">
<title>dependencies</title>
<polygon fill="#ffffff" stroke="transparent" points="-4,4 -4,-280 1129,-280 1129,4 -4,4"/>
<text text-anchor="start" x="541.5091" y="-42.4" font-family="sans-serif" font-weight="bold" font-size="14.00" fill="#000000">Legend</text>
<polygon fill="#ffffb3" stroke="transparent" points="328.5,-10 328.5,-30 348.5,-30 348.5,-10 328.5,-10"/>
<text text-anchor="start" x="352.129" y="-15.4" font-family="sans-serif" font-size="14.00" fill="#000000"> &#160;Declarations</text>
<polygon fill="#8dd3c7" stroke="transparent" points="441.5,-10 441.5,-30 461.5,-30 461.5,-10 441.5,-10"/>
<text text-anchor="start" x="465.2251" y="-15.4" font-family="sans-serif" font-size="14.00" fill="#000000"> &#160;Module</text>
<polygon fill="#80b1d3" stroke="transparent" points="527.5,-10 527.5,-30 547.5,-30 547.5,-10 527.5,-10"/>
<text text-anchor="start" x="551.2812" y="-15.4" font-family="sans-serif" font-size="14.00" fill="#000000"> &#160;Bootstrap</text>
<polygon fill="#fdb462" stroke="transparent" points="624.5,-10 624.5,-30 644.5,-30 644.5,-10 624.5,-10"/>
<text text-anchor="start" x="648.1732" y="-15.4" font-family="sans-serif" font-size="14.00" fill="#000000"> &#160;Providers</text>
<polygon fill="#fb8072" stroke="transparent" points="720.5,-10 720.5,-30 740.5,-30 740.5,-10 720.5,-10"/>
<text text-anchor="start" x="744.2258" y="-15.4" font-family="sans-serif" font-size="14.00" fill="#000000"> &#160;Exports</text>
<g id="clust1" class="cluster">
<title>cluster_AppModule</title>
<polygon fill="none" stroke="#000000" stroke-dasharray="1,5" points="8,-70 8,-268 1117,-268 1117,-70 8,-70"/>
</g>
<g id="clust2" class="cluster">
<title>cluster_AppModule_declarations</title>
<polygon fill="none" stroke="#000000" points="285,-78 285,-130 1109,-130 1109,-78 285,-78"/>
</g>
<g id="clust9" class="cluster">
<title>cluster_AppModule_imports</title>
<polygon fill="none" stroke="#000000" points="16,-78 16,-130 277,-130 277,-78 16,-78"/>
</g>
<g id="clust11" class="cluster">
<title>cluster_AppModule_bootstrap</title>
<polygon fill="none" stroke="#000000" points="480,-208 480,-260 604,-260 604,-208 480,-208"/>
</g>
<!-- AppComponent -->
<g id="node1" class="node">
<title>AppComponent</title>
<polygon fill="#ffffb3" stroke="#000000" points="1100.9399,-122 995.0601,-122 995.0601,-86 1100.9399,-86 1100.9399,-122"/>
<text text-anchor="middle" x="1048" y="-99.8" font-family="Times,serif" font-size="14.00" fill="#000000">AppComponent</text>
</g>
<!-- AppModule -->
<g id="node7" class="node">
<title>AppModule</title>
<polygon fill="#8dd3c7" stroke="#000000" points="583.6571,-187 580.6571,-191 559.6571,-191 556.6571,-187 500.3429,-187 500.3429,-151 583.6571,-151 583.6571,-187"/>
<text text-anchor="middle" x="542" y="-164.8" font-family="Times,serif" font-size="14.00" fill="#000000">AppModule</text>
</g>
<!-- AppComponent&#45;&gt;AppModule -->
<g id="edge1" class="edge">
<title>AppComponent&#45;&gt;AppModule</title>
<path fill="none" stroke="#000000" d="M1048,-122.2921C1048,-144.2057 1048,-178 1048,-178 1048,-178 593.8386,-178 593.8386,-178"/>
<polygon fill="#000000" stroke="#000000" points="593.8386,-174.5001 583.8386,-178 593.8386,-181.5001 593.8386,-174.5001"/>
</g>
<!-- GetStartedComponent -->
<g id="node2" class="node">
<title>GetStartedComponent</title>
<polygon fill="#ffffb3" stroke="#000000" points="977.6979,-122 836.3021,-122 836.3021,-86 977.6979,-86 977.6979,-122"/>
<text text-anchor="middle" x="907" y="-99.8" font-family="Times,serif" font-size="14.00" fill="#000000">GetStartedComponent</text>
</g>
<!-- GetStartedComponent&#45;&gt;AppModule -->
<g id="edge2" class="edge">
<title>GetStartedComponent&#45;&gt;AppModule</title>
<path fill="none" stroke="#000000" d="M907,-122.1061C907,-141.3391 907,-169 907,-169 907,-169 593.8701,-169 593.8701,-169"/>
<polygon fill="#000000" stroke="#000000" points="593.8702,-165.5001 583.8701,-169 593.8701,-172.5001 593.8702,-165.5001"/>
</g>
<!-- HeaderComponent -->
<g id="node3" class="node">
<title>HeaderComponent</title>
<polygon fill="#ffffb3" stroke="#000000" points="818.7437,-122 697.2563,-122 697.2563,-86 818.7437,-86 818.7437,-122"/>
<text text-anchor="middle" x="758" y="-99.8" font-family="Times,serif" font-size="14.00" fill="#000000">HeaderComponent</text>
</g>
<!-- HeaderComponent&#45;&gt;AppModule -->
<g id="edge3" class="edge">
<title>HeaderComponent&#45;&gt;AppModule</title>
<path fill="none" stroke="#000000" d="M758,-122.027C758,-138.3976 758,-160 758,-160 758,-160 593.9031,-160 593.9031,-160"/>
<polygon fill="#000000" stroke="#000000" points="593.9031,-156.5001 583.9031,-160 593.9031,-163.5001 593.9031,-156.5001"/>
</g>
<!-- HomeComponent -->
<g id="node4" class="node">
<title>HomeComponent</title>
<polygon fill="#ffffb3" stroke="#000000" points="678.5451,-122 563.4549,-122 563.4549,-86 678.5451,-86 678.5451,-122"/>
<text text-anchor="middle" x="621" y="-99.8" font-family="Times,serif" font-size="14.00" fill="#000000">HomeComponent</text>
</g>
<!-- HomeComponent&#45;&gt;AppModule -->
<g id="edge4" class="edge">
<title>HomeComponent&#45;&gt;AppModule</title>
<path fill="none" stroke="#000000" d="M573.5281,-122.1061C573.5281,-122.1061 573.5281,-140.991 573.5281,-140.991"/>
<polygon fill="#000000" stroke="#000000" points="570.0281,-140.9909 573.5281,-150.991 577.0281,-140.991 570.0281,-140.9909"/>
</g>
<!-- PageNotFoundComponent -->
<g id="node5" class="node">
<title>PageNotFoundComponent</title>
<polygon fill="#ffffb3" stroke="#000000" points="545.8243,-122 380.1757,-122 380.1757,-86 545.8243,-86 545.8243,-122"/>
<text text-anchor="middle" x="463" y="-99.8" font-family="Times,serif" font-size="14.00" fill="#000000">PageNotFoundComponent</text>
</g>
<!-- PageNotFoundComponent&#45;&gt;AppModule -->
<g id="edge5" class="edge">
<title>PageNotFoundComponent&#45;&gt;AppModule</title>
<path fill="none" stroke="#000000" d="M522.9169,-122.1061C522.9169,-122.1061 522.9169,-140.991 522.9169,-140.991"/>
<polygon fill="#000000" stroke="#000000" points="519.417,-140.9909 522.9169,-150.991 526.417,-140.991 519.417,-140.9909"/>
</g>
<!-- TVAPipe -->
<g id="node6" class="node">
<title>TVAPipe</title>
<polygon fill="#ffffb3" stroke="#000000" points="362.6545,-122 293.3455,-122 293.3455,-86 362.6545,-86 362.6545,-122"/>
<text text-anchor="middle" x="328" y="-99.8" font-family="Times,serif" font-size="14.00" fill="#000000">TVAPipe</text>
</g>
<!-- TVAPipe&#45;&gt;AppModule -->
<g id="edge6" class="edge">
<title>TVAPipe&#45;&gt;AppModule</title>
<path fill="none" stroke="#000000" d="M328,-122.027C328,-138.3976 328,-160 328,-160 328,-160 490.2306,-160 490.2306,-160"/>
<polygon fill="#000000" stroke="#000000" points="490.2307,-163.5001 500.2306,-160 490.2306,-156.5001 490.2307,-163.5001"/>
</g>
<!-- AppComponent  -->
<g id="node10" class="node">
<title>AppComponent </title>
<polygon fill="#80b1d3" stroke="#000000" points="596.439,-252 487.561,-252 487.561,-216 596.439,-216 596.439,-252"/>
<text text-anchor="middle" x="542" y="-229.8" font-family="Times,serif" font-size="14.00" fill="#000000">AppComponent </text>
</g>
<!-- AppModule&#45;&gt;AppComponent  -->
<g id="edge9" class="edge">
<title>AppModule&#45;&gt;AppComponent </title>
<path fill="none" stroke="#000000" stroke-dasharray="1,5" d="M542,-187.1061C542,-187.1061 542,-205.991 542,-205.991"/>
<polygon fill="#000000" stroke="#000000" points="538.5001,-205.9909 542,-215.991 545.5001,-205.991 538.5001,-205.9909"/>
</g>
<!-- AppRoutingModule -->
<g id="node8" class="node">
<title>AppRoutingModule</title>
<polygon fill="#8dd3c7" stroke="#000000" points="269.2744,-122 266.2744,-126 245.2744,-126 242.2744,-122 140.7256,-122 140.7256,-86 269.2744,-86 269.2744,-122"/>
<text text-anchor="middle" x="205" y="-99.8" font-family="Times,serif" font-size="14.00" fill="#000000">AppRoutingModule</text>
</g>
<!-- AppRoutingModule&#45;&gt;AppModule -->
<g id="edge7" class="edge">
<title>AppRoutingModule&#45;&gt;AppModule</title>
<path fill="none" stroke="#000000" d="M205,-122.1061C205,-141.3391 205,-169 205,-169 205,-169 490.3392,-169 490.3392,-169"/>
<polygon fill="#000000" stroke="#000000" points="490.3392,-172.5001 500.3392,-169 490.3392,-165.5001 490.3392,-172.5001"/>
</g>
<!-- SharedModule -->
<g id="node9" class="node">
<title>SharedModule</title>
<polygon fill="#8dd3c7" stroke="#000000" points="122.4231,-122 119.4231,-126 98.4231,-126 95.4231,-122 23.5769,-122 23.5769,-86 122.4231,-86 122.4231,-122"/>
<text text-anchor="middle" x="73" y="-99.8" font-family="Times,serif" font-size="14.00" fill="#000000">SharedModule</text>
</g>
<!-- SharedModule&#45;&gt;AppModule -->
<g id="edge8" class="edge">
<title>SharedModule&#45;&gt;AppModule</title>
<path fill="none" stroke="#000000" d="M73,-122.2921C73,-144.2057 73,-178 73,-178 73,-178 489.9666,-178 489.9666,-178"/>
<polygon fill="#000000" stroke="#000000" points="489.9667,-181.5001 499.9666,-178 489.9666,-174.5001 489.9667,-181.5001"/>
</g>
</g>
</svg>
