<?xml version="1.0" encoding="UTF-8" standalone="no"?>
<!DOCTYPE svg PUBLIC "-//W3C//DTD SVG 1.1//EN"
 "http://www.w3.org/Graphics/SVG/1.1/DTD/svg11.dtd">
<!-- Generated by graphviz version 2.40.1 (20161225.0304)
 -->
<!-- Title: dependencies Pages: 1 -->
<svg width="1214pt" height="211pt"
 viewBox="0.00 0.00 1214.00 211.00" xmlns="http://www.w3.org/2000/svg" xmlns:xlink="http://www.w3.org/1999/xlink">
<g id="graph0" class="graph" transform="scale(1 1) rotate(0) translate(4 207)">
<title>dependencies</title>
<polygon fill="#ffffff" stroke="transparent" points="-4,4 -4,-207 1210,-207 1210,4 -4,4"/>
<text text-anchor="start" x="582.0091" y="-42.4" font-family="sans-serif" font-weight="bold" font-size="14.00" fill="#000000">Legend</text>
<polygon fill="#ffffb3" stroke="transparent" points="369,-10 369,-30 389,-30 389,-10 369,-10"/>
<text text-anchor="start" x="392.629" y="-15.4" font-family="sans-serif" font-size="14.00" fill="#000000"> &#160;Declarations</text>
<polygon fill="#8dd3c7" stroke="transparent" points="482,-10 482,-30 502,-30 502,-10 482,-10"/>
<text text-anchor="start" x="505.7251" y="-15.4" font-family="sans-serif" font-size="14.00" fill="#000000"> &#160;Module</text>
<polygon fill="#80b1d3" stroke="transparent" points="568,-10 568,-30 588,-30 588,-10 568,-10"/>
<text text-anchor="start" x="591.7812" y="-15.4" font-family="sans-serif" font-size="14.00" fill="#000000"> &#160;Bootstrap</text>
<polygon fill="#fdb462" stroke="transparent" points="665,-10 665,-30 685,-30 685,-10 665,-10"/>
<text text-anchor="start" x="688.6732" y="-15.4" font-family="sans-serif" font-size="14.00" fill="#000000"> &#160;Providers</text>
<polygon fill="#fb8072" stroke="transparent" points="761,-10 761,-30 781,-30 781,-10 761,-10"/>
<text text-anchor="start" x="784.7258" y="-15.4" font-family="sans-serif" font-size="14.00" fill="#000000"> &#160;Exports</text>
<g id="clust1" class="cluster">
<title>cluster_ProductModule</title>
<polygon fill="none" stroke="#000000" stroke-dasharray="1,5" points="8,-70 8,-195 1198,-195 1198,-70 8,-70"/>
</g>
<g id="clust2" class="cluster">
<title>cluster_ProductModule_declarations</title>
<polygon fill="none" stroke="#000000" points="304,-78 304,-130 1190,-130 1190,-78 304,-78"/>
</g>
<g id="clust8" class="cluster">
<title>cluster_ProductModule_imports</title>
<polygon fill="none" stroke="#000000" points="16,-78 16,-130 296,-130 296,-78 16,-78"/>
</g>
<!-- ProductCardComponent -->
<g id="node1" class="node">
<title>ProductCardComponent</title>
<polygon fill="#ffffb3" stroke="#000000" points="1182.0926,-122 1029.9074,-122 1029.9074,-86 1182.0926,-86 1182.0926,-122"/>
<text text-anchor="middle" x="1106" y="-99.8" font-family="Times,serif" font-size="14.00" fill="#000000">ProductCardComponent</text>
</g>
<!-- ProductModule -->
<g id="node6" class="node">
<title>ProductModule</title>
<polygon fill="#8dd3c7" stroke="#000000" points="605.5982,-187 602.5982,-191 581.5982,-191 578.5982,-187 502.4018,-187 502.4018,-151 605.5982,-151 605.5982,-187"/>
<text text-anchor="middle" x="554" y="-164.8" font-family="Times,serif" font-size="14.00" fill="#000000">ProductModule</text>
</g>
<!-- ProductCardComponent&#45;&gt;ProductModule -->
<g id="edge1" class="edge">
<title>ProductCardComponent&#45;&gt;ProductModule</title>
<path fill="none" stroke="#000000" d="M1106,-122.2921C1106,-144.2057 1106,-178 1106,-178 1106,-178 615.9308,-178 615.9308,-178"/>
<polygon fill="#000000" stroke="#000000" points="615.9309,-174.5001 605.9308,-178 615.9308,-181.5001 615.9309,-174.5001"/>
</g>
<!-- ProductDashboardComponent -->
<g id="node2" class="node">
<title>ProductDashboardComponent</title>
<polygon fill="#ffffb3" stroke="#000000" points="1011.5224,-122 826.4776,-122 826.4776,-86 1011.5224,-86 1011.5224,-122"/>
<text text-anchor="middle" x="919" y="-99.8" font-family="Times,serif" font-size="14.00" fill="#000000">ProductDashboardComponent</text>
</g>
<!-- ProductDashboardComponent&#45;&gt;ProductModule -->
<g id="edge2" class="edge">
<title>ProductDashboardComponent&#45;&gt;ProductModule</title>
<path fill="none" stroke="#000000" d="M919,-122.1061C919,-141.3391 919,-169 919,-169 919,-169 615.908,-169 615.908,-169"/>
<polygon fill="#000000" stroke="#000000" points="615.908,-165.5001 605.908,-169 615.9079,-172.5001 615.908,-165.5001"/>
</g>
<!-- ProductDetailComponent -->
<g id="node3" class="node">
<title>ProductDetailComponent</title>
<polygon fill="#ffffb3" stroke="#000000" points="808.5884,-122 649.4116,-122 649.4116,-86 808.5884,-86 808.5884,-122"/>
<text text-anchor="middle" x="729" y="-99.8" font-family="Times,serif" font-size="14.00" fill="#000000">ProductDetailComponent</text>
</g>
<!-- ProductDetailComponent&#45;&gt;ProductModule -->
<g id="edge3" class="edge">
<title>ProductDetailComponent&#45;&gt;ProductModule</title>
<path fill="none" stroke="#000000" d="M729,-122.027C729,-138.3976 729,-160 729,-160 729,-160 615.5593,-160 615.5593,-160"/>
<polygon fill="#000000" stroke="#000000" points="615.5593,-156.5001 605.5593,-160 615.5592,-163.5001 615.5593,-156.5001"/>
</g>
<!-- ProductFormComponent -->
<g id="node4" class="node">
<title>ProductFormComponent</title>
<polygon fill="#ffffb3" stroke="#000000" points="631.7147,-122 476.2853,-122 476.2853,-86 631.7147,-86 631.7147,-122"/>
<text text-anchor="middle" x="554" y="-99.8" font-family="Times,serif" font-size="14.00" fill="#000000">ProductFormComponent</text>
</g>
<!-- ProductFormComponent&#45;&gt;ProductModule -->
<g id="edge4" class="edge">
<title>ProductFormComponent&#45;&gt;ProductModule</title>
<path fill="none" stroke="#000000" d="M554,-122.1061C554,-122.1061 554,-140.991 554,-140.991"/>
<polygon fill="#000000" stroke="#000000" points="550.5001,-140.9909 554,-150.991 557.5001,-140.991 550.5001,-140.9909"/>
</g>
<!-- ProductListComponent -->
<g id="node5" class="node">
<title>ProductListComponent</title>
<polygon fill="#ffffb3" stroke="#000000" points="458.1596,-122 311.8404,-122 311.8404,-86 458.1596,-86 458.1596,-122"/>
<text text-anchor="middle" x="385" y="-99.8" font-family="Times,serif" font-size="14.00" fill="#000000">ProductListComponent</text>
</g>
<!-- ProductListComponent&#45;&gt;ProductModule -->
<g id="edge5" class="edge">
<title>ProductListComponent&#45;&gt;ProductModule</title>
<path fill="none" stroke="#000000" d="M385,-122.027C385,-138.3976 385,-160 385,-160 385,-160 492.3761,-160 492.3761,-160"/>
<polygon fill="#000000" stroke="#000000" points="492.3762,-163.5001 502.3761,-160 492.3761,-156.5001 492.3762,-163.5001"/>
</g>
<!-- ProductRoutingModule -->
<g id="node7" class="node">
<title>ProductRoutingModule</title>
<polygon fill="#8dd3c7" stroke="#000000" points="288.2162,-122 285.2162,-126 264.2162,-126 261.2162,-122 139.7838,-122 139.7838,-86 288.2162,-86 288.2162,-122"/>
<text text-anchor="middle" x="214" y="-99.8" font-family="Times,serif" font-size="14.00" fill="#000000">ProductRoutingModule</text>
</g>
<!-- ProductRoutingModule&#45;&gt;ProductModule -->
<g id="edge6" class="edge">
<title>ProductRoutingModule&#45;&gt;ProductModule</title>
<path fill="none" stroke="#000000" d="M214,-122.1061C214,-141.3391 214,-169 214,-169 214,-169 492.3613,-169 492.3613,-169"/>
<polygon fill="#000000" stroke="#000000" points="492.3614,-172.5001 502.3613,-169 492.3613,-165.5001 492.3614,-172.5001"/>
</g>
<!-- SharedModule -->
<g id="node8" class="node">
<title>SharedModule</title>
<polygon fill="#8dd3c7" stroke="#000000" points="122.4231,-122 119.4231,-126 98.4231,-126 95.4231,-122 23.5769,-122 23.5769,-86 122.4231,-86 122.4231,-122"/>
<text text-anchor="middle" x="73" y="-99.8" font-family="Times,serif" font-size="14.00" fill="#000000">SharedModule</text>
</g>
<!-- SharedModule&#45;&gt;ProductModule -->
<g id="edge7" class="edge">
<title>SharedModule&#45;&gt;ProductModule</title>
<path fill="none" stroke="#000000" d="M73,-122.2921C73,-144.2057 73,-178 73,-178 73,-178 492.0676,-178 492.0676,-178"/>
<polygon fill="#000000" stroke="#000000" points="492.0676,-181.5001 502.0676,-178 492.0675,-174.5001 492.0676,-181.5001"/>
</g>
</g>
</svg>
