<?xml version="1.0" encoding="UTF-8" standalone="no"?>
<!DOCTYPE svg PUBLIC "-//W3C//DTD SVG 1.1//EN"
 "http://www.w3.org/Graphics/SVG/1.1/DTD/svg11.dtd">
<!-- Generated by graphviz version 2.40.1 (20161225.0304)
 -->
<!-- Title: dependencies Pages: 1 -->
<svg width="2495pt" height="290pt"
 viewBox="0.00 0.00 2495.00 290.00" xmlns="http://www.w3.org/2000/svg" xmlns:xlink="http://www.w3.org/1999/xlink">
<g id="graph0" class="graph" transform="scale(1 1) rotate(0) translate(4 286)">
<title>dependencies</title>
<polygon fill="#ffffff" stroke="transparent" points="-4,4 -4,-286 2491,-286 2491,4 -4,4"/>
<text text-anchor="start" x="1222.5091" y="-42.4" font-family="sans-serif" font-weight="bold" font-size="14.00" fill="#000000">Legend</text>
<polygon fill="#ffffb3" stroke="transparent" points="1009.5,-10 1009.5,-30 1029.5,-30 1029.5,-10 1009.5,-10"/>
<text text-anchor="start" x="1033.129" y="-15.4" font-family="sans-serif" font-size="14.00" fill="#000000"> &#160;Declarations</text>
<polygon fill="#8dd3c7" stroke="transparent" points="1122.5,-10 1122.5,-30 1142.5,-30 1142.5,-10 1122.5,-10"/>
<text text-anchor="start" x="1146.2251" y="-15.4" font-family="sans-serif" font-size="14.00" fill="#000000"> &#160;Module</text>
<polygon fill="#80b1d3" stroke="transparent" points="1208.5,-10 1208.5,-30 1228.5,-30 1228.5,-10 1208.5,-10"/>
<text text-anchor="start" x="1232.2812" y="-15.4" font-family="sans-serif" font-size="14.00" fill="#000000"> &#160;Bootstrap</text>
<polygon fill="#fdb462" stroke="transparent" points="1305.5,-10 1305.5,-30 1325.5,-30 1325.5,-10 1305.5,-10"/>
<text text-anchor="start" x="1329.1732" y="-15.4" font-family="sans-serif" font-size="14.00" fill="#000000"> &#160;Providers</text>
<polygon fill="#fb8072" stroke="transparent" points="1401.5,-10 1401.5,-30 1421.5,-30 1421.5,-10 1401.5,-10"/>
<text text-anchor="start" x="1425.2258" y="-15.4" font-family="sans-serif" font-size="14.00" fill="#000000"> &#160;Exports</text>
<g id="clust1" class="cluster">
<title>cluster_AppModule</title>
<polygon fill="none" stroke="#000000" stroke-dasharray="1,5" points="8,-70 8,-274 1117,-274 1117,-70 8,-70"/>
</g>
<g id="clust2" class="cluster">
<title>cluster_AppModule_declarations</title>
<polygon fill="none" stroke="#000000" points="16,-78 16,-130 840,-130 840,-78 16,-78"/>
</g>
<g id="clust9" class="cluster">
<title>cluster_AppModule_imports</title>
<polygon fill="none" stroke="#000000" points="848,-78 848,-130 1109,-130 1109,-78 848,-78"/>
</g>
<g id="clust11" class="cluster">
<title>cluster_AppModule_bootstrap</title>
<polygon fill="none" stroke="#000000" points="501,-214 501,-266 625,-266 625,-214 501,-214"/>
</g>
<g id="clust25" class="cluster">
<title>cluster_ProductModule</title>
<polygon fill="none" stroke="#000000" stroke-dasharray="1,5" points="1405,-70 1405,-198 2479,-198 2479,-70 1405,-70"/>
</g>
<g id="clust26" class="cluster">
<title>cluster_ProductModule_declarations</title>
<polygon fill="none" stroke="#000000" points="1585,-78 1585,-130 2471,-130 2471,-78 1585,-78"/>
</g>
<g id="clust32" class="cluster">
<title>cluster_ProductModule_imports</title>
<polygon fill="none" stroke="#000000" points="1413,-78 1413,-130 1577,-130 1577,-78 1413,-78"/>
</g>
<g id="clust42" class="cluster">
<title>cluster_SharedModule</title>
<polygon fill="none" stroke="#000000" stroke-dasharray="1,5" points="1125,-138 1125,-206 1397,-206 1397,-138 1125,-138"/>
</g>
<g id="clust44" class="cluster">
<title>cluster_SharedModule_imports</title>
<polygon fill="none" stroke="#000000" points="1267,-146 1267,-198 1389,-198 1389,-146 1267,-146"/>
</g>
<g id="clust45" class="cluster">
<title>cluster_SharedModule_exports</title>
<polygon fill="none" stroke="#000000" points="1133,-146 1133,-198 1259,-198 1259,-146 1133,-146"/>
</g>
<!-- AppComponent -->
<g id="node1" class="node">
<title>AppComponent</title>
<polygon fill="#ffffb3" stroke="#000000" points="831.9399,-122 726.0601,-122 726.0601,-86 831.9399,-86 831.9399,-122"/>
<text text-anchor="middle" x="779" y="-99.8" font-family="Times,serif" font-size="14.00" fill="#000000">AppComponent</text>
</g>
<!-- AppModule -->
<g id="node7" class="node">
<title>AppModule</title>
<polygon fill="#8dd3c7" stroke="#000000" points="604.6571,-190 601.6571,-194 580.6571,-194 577.6571,-190 521.3429,-190 521.3429,-154 604.6571,-154 604.6571,-190"/>
<text text-anchor="middle" x="563" y="-167.8" font-family="Times,serif" font-size="14.00" fill="#000000">AppModule</text>
</g>
<!-- AppComponent&#45;&gt;AppModule -->
<g id="edge1" class="edge">
<title>AppComponent&#45;&gt;AppModule</title>
<path fill="none" stroke="#000000" d="M779,-122.0336C779,-139.0597 779,-162 779,-162 779,-162 614.9031,-162 614.9031,-162"/>
<polygon fill="#000000" stroke="#000000" points="614.9031,-158.5001 604.9031,-162 614.9031,-165.5001 614.9031,-158.5001"/>
</g>
<!-- GetStartedComponent -->
<g id="node2" class="node">
<title>GetStartedComponent</title>
<polygon fill="#ffffb3" stroke="#000000" points="708.6979,-122 567.3021,-122 567.3021,-86 708.6979,-86 708.6979,-122"/>
<text text-anchor="middle" x="638" y="-99.8" font-family="Times,serif" font-size="14.00" fill="#000000">GetStartedComponent</text>
</g>
<!-- GetStartedComponent&#45;&gt;AppModule -->
<g id="edge2" class="edge">
<title>GetStartedComponent&#45;&gt;AppModule</title>
<path fill="none" stroke="#000000" d="M586.1147,-122.2228C586.1147,-122.2228 586.1147,-143.7269 586.1147,-143.7269"/>
<polygon fill="#000000" stroke="#000000" points="582.6147,-143.7269 586.1147,-153.7269 589.6147,-143.727 582.6147,-143.7269"/>
</g>
<!-- HeaderComponent -->
<g id="node3" class="node">
<title>HeaderComponent</title>
<polygon fill="#ffffb3" stroke="#000000" points="549.7437,-122 428.2563,-122 428.2563,-86 549.7437,-86 549.7437,-122"/>
<text text-anchor="middle" x="489" y="-99.8" font-family="Times,serif" font-size="14.00" fill="#000000">HeaderComponent</text>
</g>
<!-- HeaderComponent&#45;&gt;AppModule -->
<g id="edge3" class="edge">
<title>HeaderComponent&#45;&gt;AppModule</title>
<path fill="none" stroke="#000000" d="M535.5218,-122.2228C535.5218,-122.2228 535.5218,-143.7269 535.5218,-143.7269"/>
<polygon fill="#000000" stroke="#000000" points="532.0218,-143.7269 535.5218,-153.7269 539.0218,-143.727 532.0218,-143.7269"/>
</g>
<!-- HomeComponent -->
<g id="node4" class="node">
<title>HomeComponent</title>
<polygon fill="#ffffb3" stroke="#000000" points="409.5451,-122 294.4549,-122 294.4549,-86 409.5451,-86 409.5451,-122"/>
<text text-anchor="middle" x="352" y="-99.8" font-family="Times,serif" font-size="14.00" fill="#000000">HomeComponent</text>
</g>
<!-- HomeComponent&#45;&gt;AppModule -->
<g id="edge4" class="edge">
<title>HomeComponent&#45;&gt;AppModule</title>
<path fill="none" stroke="#000000" d="M352,-122.0225C352,-139.3734 352,-163 352,-163 352,-163 511.3132,-163 511.3132,-163"/>
<polygon fill="#000000" stroke="#000000" points="511.3132,-166.5001 521.3132,-163 511.3132,-159.5001 511.3132,-166.5001"/>
</g>
<!-- PageNotFoundComponent -->
<g id="node5" class="node">
<title>PageNotFoundComponent</title>
<polygon fill="#ffffb3" stroke="#000000" points="276.8243,-122 111.1757,-122 111.1757,-86 276.8243,-86 276.8243,-122"/>
<text text-anchor="middle" x="194" y="-99.8" font-family="Times,serif" font-size="14.00" fill="#000000">PageNotFoundComponent</text>
</g>
<!-- PageNotFoundComponent&#45;&gt;AppModule -->
<g id="edge5" class="edge">
<title>PageNotFoundComponent&#45;&gt;AppModule</title>
<path fill="none" stroke="#000000" d="M194,-122.2228C194,-142.3652 194,-172 194,-172 194,-172 511.0303,-172 511.0303,-172"/>
<polygon fill="#000000" stroke="#000000" points="511.0303,-175.5001 521.0303,-172 511.0302,-168.5001 511.0303,-175.5001"/>
</g>
<!-- TVAPipe -->
<g id="node6" class="node">
<title>TVAPipe</title>
<polygon fill="#ffffb3" stroke="#000000" points="93.6545,-122 24.3455,-122 24.3455,-86 93.6545,-86 93.6545,-122"/>
<text text-anchor="middle" x="59" y="-99.8" font-family="Times,serif" font-size="14.00" fill="#000000">TVAPipe</text>
</g>
<!-- TVAPipe&#45;&gt;AppModule -->
<g id="edge6" class="edge">
<title>TVAPipe&#45;&gt;AppModule</title>
<path fill="none" stroke="#000000" d="M59,-122.2479C59,-145.0179 59,-181 59,-181 59,-181 511.3268,-181 511.3268,-181"/>
<polygon fill="#000000" stroke="#000000" points="511.3268,-184.5001 521.3268,-181 511.3267,-177.5001 511.3268,-184.5001"/>
</g>
<!-- AppComponent  -->
<g id="node10" class="node">
<title>AppComponent </title>
<polygon fill="#80b1d3" stroke="#000000" points="617.439,-258 508.561,-258 508.561,-222 617.439,-222 617.439,-258"/>
<text text-anchor="middle" x="563" y="-235.8" font-family="Times,serif" font-size="14.00" fill="#000000">AppComponent </text>
</g>
<!-- AppModule&#45;&gt;AppComponent  -->
<g id="edge9" class="edge">
<title>AppModule&#45;&gt;AppComponent </title>
<path fill="none" stroke="#000000" stroke-dasharray="1,5" d="M563,-190.2228C563,-190.2228 563,-211.7269 563,-211.7269"/>
<polygon fill="#000000" stroke="#000000" points="559.5001,-211.7269 563,-221.7269 566.5001,-211.727 559.5001,-211.7269"/>
</g>
<!-- AppRoutingModule -->
<g id="node8" class="node">
<title>AppRoutingModule</title>
<polygon fill="#8dd3c7" stroke="#000000" points="984.2744,-122 981.2744,-126 960.2744,-126 957.2744,-122 855.7256,-122 855.7256,-86 984.2744,-86 984.2744,-122"/>
<text text-anchor="middle" x="920" y="-99.8" font-family="Times,serif" font-size="14.00" fill="#000000">AppRoutingModule</text>
</g>
<!-- AppRoutingModule&#45;&gt;AppModule -->
<g id="edge7" class="edge">
<title>AppRoutingModule&#45;&gt;AppModule</title>
<path fill="none" stroke="#000000" d="M920,-122.1061C920,-141.3391 920,-169 920,-169 920,-169 615.0022,-169 615.0022,-169"/>
<polygon fill="#000000" stroke="#000000" points="615.0023,-165.5001 605.0022,-169 615.0022,-172.5001 615.0023,-165.5001"/>
</g>
<!-- SharedModule -->
<g id="node9" class="node">
<title>SharedModule</title>
<polygon fill="#8dd3c7" stroke="#000000" points="1101.4231,-122 1098.4231,-126 1077.4231,-126 1074.4231,-122 1002.5769,-122 1002.5769,-86 1101.4231,-86 1101.4231,-122"/>
<text text-anchor="middle" x="1052" y="-99.8" font-family="Times,serif" font-size="14.00" fill="#000000">SharedModule</text>
</g>
<!-- SharedModule&#45;&gt;AppModule -->
<g id="edge8" class="edge">
<title>SharedModule&#45;&gt;AppModule</title>
<path fill="none" stroke="#000000" d="M1035.5963,-122.1686C1035.5963,-143.498 1035.5963,-176 1035.5963,-176 1035.5963,-176 614.9398,-176 614.9398,-176"/>
<polygon fill="#000000" stroke="#000000" points="614.9398,-172.5001 604.9398,-176 614.9397,-179.5001 614.9398,-172.5001"/>
</g>
<!-- ProductModule -->
<g id="node16" class="node">
<title>ProductModule</title>
<polygon fill="#8dd3c7" stroke="#000000" points="1886.5982,-190 1883.5982,-194 1862.5982,-194 1859.5982,-190 1783.4018,-190 1783.4018,-154 1886.5982,-154 1886.5982,-190"/>
<text text-anchor="middle" x="1835" y="-167.8" font-family="Times,serif" font-size="14.00" fill="#000000">ProductModule</text>
</g>
<!-- SharedModule&#45;&gt;ProductModule -->
<g id="edge16" class="edge">
<title>SharedModule&#45;&gt;ProductModule</title>
<path fill="none" stroke="#000000" d="M1101.2896,-98C1197.5437,-98 1401.1887,-98 1401.1887,-98 1401.1887,-98 1401.1887,-181 1401.1887,-181 1401.1887,-181 1773.1031,-181 1773.1031,-181"/>
<polygon fill="#000000" stroke="#000000" points="1773.1031,-184.5001 1783.1031,-181 1773.1031,-177.5001 1773.1031,-184.5001"/>
</g>
<!-- MaterialModule  -->
<g id="node19" class="node">
<title>MaterialModule </title>
<polygon fill="#fb8072" stroke="#000000" points="1251.4716,-190 1140.5284,-190 1140.5284,-154 1251.4716,-154 1251.4716,-190"/>
<text text-anchor="middle" x="1196" y="-167.8" font-family="Times,serif" font-size="14.00" fill="#000000">MaterialModule </text>
</g>
<!-- SharedModule&#45;&gt;MaterialModule  -->
<g id="edge18" class="edge">
<title>SharedModule&#45;&gt;MaterialModule </title>
<path fill="none" stroke="#000000" stroke-dasharray="5,2" d="M1068.4037,-122.3228C1068.4037,-145.6602 1068.4037,-183 1068.4037,-183 1068.4037,-183 1130.4056,-183 1130.4056,-183"/>
<polygon fill="#000000" stroke="#000000" points="1130.4056,-186.5001 1140.4056,-183 1130.4055,-179.5001 1130.4056,-186.5001"/>
</g>
<!-- ProductCardComponent -->
<g id="node11" class="node">
<title>ProductCardComponent</title>
<polygon fill="#ffffb3" stroke="#000000" points="2463.0926,-122 2310.9074,-122 2310.9074,-86 2463.0926,-86 2463.0926,-122"/>
<text text-anchor="middle" x="2387" y="-99.8" font-family="Times,serif" font-size="14.00" fill="#000000">ProductCardComponent</text>
</g>
<!-- ProductCardComponent&#45;&gt;ProductModule -->
<g id="edge10" class="edge">
<title>ProductCardComponent&#45;&gt;ProductModule</title>
<path fill="none" stroke="#000000" d="M2387,-122.2479C2387,-145.0179 2387,-181 2387,-181 2387,-181 1896.9308,-181 1896.9308,-181"/>
<polygon fill="#000000" stroke="#000000" points="1896.9309,-177.5001 1886.9308,-181 1896.9308,-184.5001 1896.9309,-177.5001"/>
</g>
<!-- ProductDashboardComponent -->
<g id="node12" class="node">
<title>ProductDashboardComponent</title>
<polygon fill="#ffffb3" stroke="#000000" points="2292.5224,-122 2107.4776,-122 2107.4776,-86 2292.5224,-86 2292.5224,-122"/>
<text text-anchor="middle" x="2200" y="-99.8" font-family="Times,serif" font-size="14.00" fill="#000000">ProductDashboardComponent</text>
</g>
<!-- ProductDashboardComponent&#45;&gt;ProductModule -->
<g id="edge11" class="edge">
<title>ProductDashboardComponent&#45;&gt;ProductModule</title>
<path fill="none" stroke="#000000" d="M2200,-122.2228C2200,-142.3652 2200,-172 2200,-172 2200,-172 1896.908,-172 1896.908,-172"/>
<polygon fill="#000000" stroke="#000000" points="1896.908,-168.5001 1886.908,-172 1896.9079,-175.5001 1896.908,-168.5001"/>
</g>
<!-- ProductDetailComponent -->
<g id="node13" class="node">
<title>ProductDetailComponent</title>
<polygon fill="#ffffb3" stroke="#000000" points="2089.5884,-122 1930.4116,-122 1930.4116,-86 2089.5884,-86 2089.5884,-122"/>
<text text-anchor="middle" x="2010" y="-99.8" font-family="Times,serif" font-size="14.00" fill="#000000">ProductDetailComponent</text>
</g>
<!-- ProductDetailComponent&#45;&gt;ProductModule -->
<g id="edge12" class="edge">
<title>ProductDetailComponent&#45;&gt;ProductModule</title>
<path fill="none" stroke="#000000" d="M2010,-122.0225C2010,-139.3734 2010,-163 2010,-163 2010,-163 1896.5593,-163 1896.5593,-163"/>
<polygon fill="#000000" stroke="#000000" points="1896.5593,-159.5001 1886.5593,-163 1896.5592,-166.5001 1896.5593,-159.5001"/>
</g>
<!-- ProductFormComponent -->
<g id="node14" class="node">
<title>ProductFormComponent</title>
<polygon fill="#ffffb3" stroke="#000000" points="1912.7147,-122 1757.2853,-122 1757.2853,-86 1912.7147,-86 1912.7147,-122"/>
<text text-anchor="middle" x="1835" y="-99.8" font-family="Times,serif" font-size="14.00" fill="#000000">ProductFormComponent</text>
</g>
<!-- ProductFormComponent&#45;&gt;ProductModule -->
<g id="edge13" class="edge">
<title>ProductFormComponent&#45;&gt;ProductModule</title>
<path fill="none" stroke="#000000" d="M1835,-122.2228C1835,-122.2228 1835,-143.7269 1835,-143.7269"/>
<polygon fill="#000000" stroke="#000000" points="1831.5001,-143.7269 1835,-153.7269 1838.5001,-143.727 1831.5001,-143.7269"/>
</g>
<!-- ProductListComponent -->
<g id="node15" class="node">
<title>ProductListComponent</title>
<polygon fill="#ffffb3" stroke="#000000" points="1739.1596,-122 1592.8404,-122 1592.8404,-86 1739.1596,-86 1739.1596,-122"/>
<text text-anchor="middle" x="1666" y="-99.8" font-family="Times,serif" font-size="14.00" fill="#000000">ProductListComponent</text>
</g>
<!-- ProductListComponent&#45;&gt;ProductModule -->
<g id="edge14" class="edge">
<title>ProductListComponent&#45;&gt;ProductModule</title>
<path fill="none" stroke="#000000" d="M1666,-122.0225C1666,-139.3734 1666,-163 1666,-163 1666,-163 1773.3761,-163 1773.3761,-163"/>
<polygon fill="#000000" stroke="#000000" points="1773.3762,-166.5001 1783.3761,-163 1773.3761,-159.5001 1773.3762,-166.5001"/>
</g>
<!-- ProductRoutingModule -->
<g id="node17" class="node">
<title>ProductRoutingModule</title>
<polygon fill="#8dd3c7" stroke="#000000" points="1569.2162,-122 1566.2162,-126 1545.2162,-126 1542.2162,-122 1420.7838,-122 1420.7838,-86 1569.2162,-86 1569.2162,-122"/>
<text text-anchor="middle" x="1495" y="-99.8" font-family="Times,serif" font-size="14.00" fill="#000000">ProductRoutingModule</text>
</g>
<!-- ProductRoutingModule&#45;&gt;ProductModule -->
<g id="edge15" class="edge">
<title>ProductRoutingModule&#45;&gt;ProductModule</title>
<path fill="none" stroke="#000000" d="M1495,-122.2228C1495,-142.3652 1495,-172 1495,-172 1495,-172 1773.3613,-172 1773.3613,-172"/>
<polygon fill="#000000" stroke="#000000" points="1773.3614,-175.5001 1783.3613,-172 1773.3613,-168.5001 1773.3614,-175.5001"/>
</g>
<!-- MaterialModule -->
<g id="node18" class="node">
<title>MaterialModule</title>
<polygon fill="#8dd3c7" stroke="#000000" points="1381.4706,-190 1378.4706,-194 1357.4706,-194 1354.4706,-190 1274.5294,-190 1274.5294,-154 1381.4706,-154 1381.4706,-190"/>
<text text-anchor="middle" x="1328" y="-167.8" font-family="Times,serif" font-size="14.00" fill="#000000">MaterialModule</text>
</g>
<!-- MaterialModule&#45;&gt;SharedModule -->
<g id="edge17" class="edge">
<title>MaterialModule&#45;&gt;SharedModule</title>
<path fill="none" stroke="#000000" d="M1328,-153.7333C1328,-135.4448 1328,-110 1328,-110 1328,-110 1111.3433,-110 1111.3433,-110"/>
<polygon fill="#000000" stroke="#000000" points="1111.3433,-106.5001 1101.3433,-110 1111.3432,-113.5001 1111.3433,-106.5001"/>
</g>
</g>
</svg>
